<svg xmlns="http://www.w3.org/2000/svg" xmlns:xlink="http://www.w3.org/1999/xlink" width="32" height="32"><defs><linearGradient id="a"><stop offset="0" stop-color="#d57126"/><stop offset=".6" stop-color="#e66d4e"/><stop offset="1" stop-color="#c45748" stop-opacity=".9"/></linearGradient><linearGradient xlink:href="#a" id="e" x1="10.3" x2="18" y1="13.2" y2="25.4" gradientTransform="translate(1.6 -.9)" gradientUnits="userSpaceOnUse"/><pattern xlink:href="#b" id="c" x="28.9" y="1" patternTransform="matrix(.17 .26 -.34 .23 0 0)" preserveAspectRatio="none"/><pattern id="b" width="142" height="123" fill="#62301c" patternTransform="scale(.4)" patternUnits="userSpaceOnUse" preserveAspectRatio="xMidYMid"><path fill-opacity=".6" stroke-miterlimit="10" stroke-width="2" d="m0 0 35.5 20.5L71 0l35.5 20.5L142 0Z"/><path fill-opacity=".3" stroke-miterlimit="10" stroke-width="2" d="M35.5 61.5v41L0 123V82ZM142 0v41l-35.5 20.5v-41ZM71 0v41L35.5 61.5v-41Zm35.5 61.5v41L71 123V82Z"/><path stroke-miterlimit="10" stroke-width="2" d="M106.5 61.5v41L142 123V82ZM71 0v41l35.5 20.5v-41ZM0 0v41l35.5 20.5v-41Zm35.5 61.5v41L71 123V82Z"/><path fill-opacity=".6" stroke-miterlimit="10" stroke-width="2" d="M71 41 35.5 61.5 0 41v41l35.5-20.5L71 82l35.5-20.5L142 82V41l-35.5 20.5zm-35.5 61.5L0 123h142l-35.5-20.5L71 123z"/></pattern><filter id="d" width="1.31" height="1.28" x="-.15" y="-.14" color-interpolation-filters="sRGB"><feGaussianBlur result="result6" stdDeviation=".8"/><feComposite in="SourceGraphic" in2="result6" operator="atop" result="result8"/><feComposite in="result8" in2="SourceAlpha" result="result9"/><feColorMatrix result="result10" values="1 0 0 0 0 0 1 0 0 0 0 0 1 0 0 0 0 0 1 0"/><feBlend in="result10" in2="result6"/></filter><filter id="f" width="1.31" height="1.28" x="-.16" y="-.1" color-interpolation-filters="sRGB"><feGaussianBlur result="fbSourceGraphic"/><feColorMatrix in="fbSourceGraphic" result="fbSourceGraphicAlpha" values="0 0 0 -1 0 0 0 0 -1 0 0 0 0 -1 0 0 0 0 1 0"/><feGaussianBlur in="fbSourceGraphic" result="blur" stdDeviation=".3"/><feComposite in="fbSourceGraphic" in2="blur" operator="in" result="composite1"/><feComposite in="composite1" in2="composite1" k2="1" operator="in" result="composite2"/></filter></defs><g stroke="#c45514" stroke-opacity=".4" stroke-width="1.8" class="UnoptimicedTransforms" paint-order="stroke fill markers"><path fill="url(#c)" stroke-linecap="round" stroke-linejoin="round" d="m6.9 8.5 5.3-2.7 4 2.7L25.3 7l-1.6 14.6-7.1 4.5L9.5 23Z" filter="url(#d)" style="mix-blend-mode:normal" transform="matrix(1.2 0 0 1.2 -3.32 -3.14)"/><path fill="url(#e)" d="m13.2 10.6-2.3 3 1.3 4 2.4 1.1h2.1l2.4-.8-1.6 2.4-2.4 1.3L15 23l2.6-1.2 2.7-2.7 1.3-2.7-.3-4-2.4-1.3-2.4 1-.2 1.7 1.3 1.3h1.3l-1.3-1.3 1.3-1.3 1.4 1.3v2.6l-4 1.3-3.2-1.3-1-2.6z" filter="url(#f)" transform="matrix(1.2 0 0 1.2 -3.32 -3.14)"/></g></svg>